<svg width="412" height="29" viewBox="0 0 412 29" fill="none" xmlns="http://www.w3.org/2000/svg">
<path d="M410.697 0.414429H383.576V27.536H410.697V0.414429Z" fill="white"/>
<path d="M394.09 5.90876C394.647 5.85374 394.902 6.48645 395.067 6.91281C395.479 8.2926 395.515 9.75747 395.17 11.1557C395.086 11.6435 394.845 12.0905 394.482 12.4279C394.118 12.6755 393.719 12.3316 393.561 12.0084C393.053 10.8628 392.869 9.59959 393.031 8.35689C393.077 7.70929 393.24 7.07542 393.513 6.48646C393.563 6.35528 393.641 6.23613 393.741 6.13666C393.84 6.0372 393.959 5.95955 394.09 5.90876Z" fill="#FF7A3D"/>
<path fill-rule="evenodd" clip-rule="evenodd" d="M394.192 6.66497C394.176 6.68658 394.164 6.71003 394.154 6.7348L394.146 6.75553L394.137 6.77571C393.899 7.28866 393.757 7.84074 393.718 8.40479L393.716 8.42534L393.713 8.44576C393.569 9.55783 393.731 10.6882 394.183 11.7144C394.185 11.7191 394.188 11.724 394.191 11.7291C394.345 11.5279 394.449 11.2914 394.492 11.0392L394.497 11.015L394.502 10.9911C394.816 9.72074 394.786 8.3902 394.416 7.13549C394.338 6.93512 394.269 6.77638 394.192 6.66497ZM394.09 5.90878L394.023 5.22444C394.63 5.16448 395.041 5.50563 395.275 5.81696C395.492 6.10454 395.626 6.45178 395.704 6.65397C395.706 6.65756 395.707 6.6611 395.708 6.66459L395.718 6.68995L395.726 6.716C396.171 8.20583 396.211 9.78707 395.843 11.2975C395.73 11.9238 395.417 12.497 394.951 12.9311L394.913 12.9671L394.869 12.9968C394.414 13.3054 393.931 13.219 393.6 13.0275C393.296 12.8516 393.071 12.5712 392.943 12.3106L392.938 12.2991L392.932 12.2873C392.376 11.0326 392.173 9.64967 392.347 8.28837C392.4 7.57107 392.58 6.869 392.881 6.21544C392.966 6.00394 393.093 5.81176 393.255 5.65043C393.421 5.48345 393.622 5.35294 393.842 5.26751L394.09 5.90878Z" fill="#FF7A3D"/>
<path d="M400.141 5.90871C400.747 5.83994 401.001 6.54831 401.166 7.00904C401.453 8.01627 401.539 9.06986 401.421 10.1103C401.396 10.9108 401.13 11.6852 400.657 12.3316C400.341 12.6892 399.818 12.4416 399.646 12.0703C399.129 10.9735 398.929 9.75394 399.069 8.54941C399.099 7.86505 399.253 7.1918 399.523 6.56204C399.575 6.4161 399.657 6.2826 399.763 6.17011C399.87 6.05762 399.999 5.96857 400.141 5.90871Z" fill="#FF7A3D"/>
<path fill-rule="evenodd" clip-rule="evenodd" d="M400.254 6.65248C400.217 6.69355 400.189 6.74134 400.17 6.79318L400.163 6.81323L400.155 6.8328C399.918 7.38652 399.783 7.97846 399.756 8.58015L399.755 8.60453L399.752 8.62876C399.629 9.6847 399.799 10.7536 400.242 11.7193C400.545 11.23 400.716 10.668 400.733 10.0895L400.734 10.0609L400.737 10.0325C400.845 9.08883 400.768 8.13336 400.511 7.21917C400.425 6.98109 400.351 6.78935 400.258 6.65748C400.256 6.65578 400.255 6.65411 400.254 6.65248ZM400.142 5.90883L400.064 5.22556C400.712 5.15191 401.142 5.52609 401.38 5.86339C401.596 6.16799 401.728 6.5364 401.805 6.75302C401.808 6.76133 401.811 6.76941 401.814 6.77726L401.821 6.79885L401.828 6.8209C402.136 7.9056 402.231 9.03983 402.107 10.1606C402.073 11.0894 401.761 11.9871 401.212 12.7376L401.194 12.7634L401.172 12.7873C400.8 13.2084 400.285 13.2612 399.881 13.1271C399.51 13.0037 399.189 12.718 399.024 12.3619C398.456 11.1569 398.234 9.81793 398.383 8.49445C398.419 7.74229 398.589 7.00249 398.883 6.30931C398.967 6.08175 399.097 5.87355 399.264 5.69729C399.436 5.51545 399.645 5.37141 399.876 5.27455L400.142 5.90883Z" fill="#FF7A3D"/>
<path d="M405.162 14.3396C405.093 16.0058 404.446 17.5961 403.332 18.837C402.228 20.0352 400.804 20.8912 399.228 21.3032C397.651 21.7153 395.99 21.666 394.441 21.1613C392.952 20.6946 391.631 19.8059 390.638 18.6032C389.668 17.4106 389.098 15.943 389.008 14.4083C389.008 13.6382 389.696 13.6382 389.696 14.3327C389.764 16.0104 390.482 17.596 391.697 18.7544C392.899 19.8906 394.427 20.6196 396.067 20.8381C397.706 21.0566 399.372 20.7534 400.829 19.9716C401.892 19.4272 402.792 18.6097 403.434 17.6031C404.077 16.5964 404.441 15.4368 404.488 14.2433C404.46 13.6519 405.182 13.6244 405.162 14.3396Z" fill="#FF7A3D"/>
<path fill-rule="evenodd" clip-rule="evenodd" d="M404.473 14.2809C404.473 14.2809 404.473 14.2814 404.473 14.2823L404.473 14.2809ZM392.171 18.2557C393.267 19.2921 394.662 19.9571 396.158 20.1564C397.654 20.3558 399.174 20.0792 400.504 19.3656L400.51 19.3625L400.516 19.3595C401.471 18.8707 402.278 18.1367 402.855 17.2329C403.428 16.3355 403.754 15.3026 403.8 14.239C403.79 13.6642 404.184 13.0815 404.856 13.1146C405.547 13.1487 405.866 13.7891 405.849 14.3594L405.849 14.3678L405.849 14.3678C405.774 16.1937 405.065 17.9365 403.844 19.2963L403.838 19.3029L403.838 19.3029C402.645 20.598 401.105 21.5232 399.402 21.9685C397.699 22.4135 395.905 22.3607 394.232 21.8163C392.618 21.3094 391.185 20.3454 390.108 19.041L390.105 19.0371L390.105 19.0371C389.044 17.7325 388.42 16.1271 388.322 14.4484L388.321 14.4284V14.4083C388.321 13.8961 388.58 13.175 389.315 13.1346C389.663 13.1155 389.957 13.2889 390.138 13.5296C390.311 13.7596 390.381 14.0408 390.384 14.3166C390.447 15.8112 391.088 17.2232 392.171 18.2557ZM389.006 14.2943C389.006 14.2943 389.006 14.2949 389.006 14.2961C389.006 14.2949 389.006 14.2943 389.006 14.2943Z" fill="#FF7A3D"/>
<path d="M0 0.474717H20.3164V5.66008H6.18958V11.0645H18.4231V15.9943H6.18958V22.3117H20.5712V27.6431H0V0.474717Z" fill="white"/>
<path d="M43.397 28.3004C41.5765 28.3004 39.9381 28.0935 38.4817 27.6796C37.0254 27.2657 35.7753 26.6693 34.7316 25.8903C33.6879 25.1113 32.8747 24.1497 32.2922 23.0055C31.7339 21.8369 31.4305 20.5223 31.3819 19.0617H37.6443C37.8142 20.5467 38.3725 21.63 39.3192 22.3117C40.2901 22.9933 41.6493 23.3341 43.397 23.3341C44.0038 23.3341 44.5864 23.2733 45.1446 23.1515C45.7029 23.0298 46.2005 22.8472 46.6374 22.6038C47.0743 22.336 47.4142 22.0074 47.6569 21.6178C47.9239 21.204 48.0574 20.7171 48.0574 20.1572C48.0574 19.5729 47.9117 19.086 47.6205 18.6965C47.3535 18.307 46.953 17.9784 46.419 17.7106C45.885 17.4428 45.2296 17.2115 44.4529 17.0167C43.6761 16.7976 42.8023 16.5785 41.8314 16.3594C40.5207 16.0673 39.2828 15.7387 38.1177 15.3735C36.9526 15.0083 35.9331 14.5336 35.0593 13.9493C34.1855 13.3407 33.4937 12.5861 32.9839 11.6853C32.4985 10.7602 32.2558 9.5917 32.2558 8.17972C32.2558 6.76775 32.5228 5.55053 33.0568 4.52806C33.5908 3.5056 34.3311 2.66571 35.2777 2.00841C36.2244 1.32677 37.3409 0.82771 38.6274 0.511233C39.9138 0.170411 41.3095 0 42.8144 0C44.2951 0 45.6665 0.170411 46.9287 0.511233C48.1909 0.852054 49.2832 1.36329 50.2055 2.04493C51.1279 2.72657 51.8682 3.57863 52.4265 4.60109C52.9848 5.59922 53.3125 6.76775 53.4095 8.10669H47.3292C47.1593 7.03553 46.6738 6.20782 45.8728 5.62356C45.0718 5.03929 43.9917 4.74716 42.6324 4.74716C41.3459 4.74716 40.3143 5.00278 39.5376 5.51401C38.7609 6.02524 38.3725 6.70689 38.3725 7.55894C38.3725 8.09452 38.5182 8.53272 38.8094 8.87354C39.1007 9.21436 39.5255 9.51867 40.0838 9.78646C40.642 10.0299 41.3217 10.249 42.1227 10.4438C42.948 10.6385 43.8946 10.8576 44.9626 11.1011C46.1762 11.3688 47.3413 11.6975 48.4579 12.087C49.5987 12.4522 50.5939 12.9512 51.4434 13.5842C52.3173 14.2171 53.009 15.0083 53.5188 15.9578C54.0528 16.9072 54.3198 18.1001 54.3198 19.5364C54.3198 20.9484 54.0406 22.2021 53.4824 23.2976C52.9241 24.3688 52.1474 25.2817 51.1522 26.0364C50.1813 26.7667 49.0283 27.3266 47.6933 27.7161C46.3826 28.1056 44.9505 28.3004 43.397 28.3004Z" fill="white"/>
<path d="M64.0425 0.474717H86.3978V5.76963H78.3149V27.6431H72.0889V5.76963H64.0425V0.474717Z" fill="white"/>
<path d="M109.215 28.3004C107.152 28.3004 105.295 27.9474 103.645 27.2414C101.994 26.5354 100.586 25.5495 99.4212 24.2836C98.2561 23.0176 97.358 21.5205 96.7269 19.792C96.1201 18.0636 95.8167 16.189 95.8167 14.1685C95.8167 12.1235 96.1201 10.2368 96.7269 8.50837C97.358 6.77992 98.2561 5.29491 99.4212 4.05335C100.586 2.78744 101.994 1.80149 103.645 1.0955C105.295 0.365166 107.152 0 109.215 0C111.254 0 113.099 0.365166 114.749 1.0955C116.4 1.80149 117.808 2.78744 118.973 4.05335C120.138 5.29491 121.024 6.77992 121.631 8.50837C122.262 10.2368 122.577 12.1235 122.577 14.1685C122.577 16.189 122.262 18.0636 121.631 19.792C121.024 21.5205 120.138 23.0176 118.973 24.2836C117.808 25.5495 116.4 26.5354 114.749 27.2414C113.099 27.9474 111.254 28.3004 109.215 28.3004ZM109.252 23.1881C110.417 23.1881 111.436 22.9568 112.31 22.4942C113.184 22.0317 113.912 21.3987 114.495 20.5954C115.077 19.792 115.514 18.8426 115.805 17.7471C116.097 16.6516 116.242 15.4587 116.242 14.1685C116.242 12.8782 116.097 11.6853 115.805 10.5898C115.514 9.46998 115.077 8.4962 114.495 7.66849C113.912 6.84078 113.184 6.19565 112.31 5.73311C111.436 5.27057 110.417 5.03929 109.252 5.03929C108.087 5.03929 107.055 5.27057 106.157 5.73311C105.283 6.19565 104.543 6.84078 103.936 7.66849C103.353 8.4962 102.904 9.46998 102.589 10.5898C102.298 11.6853 102.152 12.8782 102.152 14.1685C102.152 15.4587 102.298 16.6516 102.589 17.7471C102.904 18.8426 103.353 19.792 103.936 20.5954C104.543 21.3987 105.283 22.0317 106.157 22.4942C107.055 22.9568 108.087 23.1881 109.252 23.1881Z" fill="white"/>
<path d="M134.404 0.474717H147.293C148.604 0.474717 149.817 0.645127 150.934 0.985949C152.075 1.32677 153.058 1.838 153.883 2.51965C154.708 3.17695 155.352 3.99248 155.813 4.96626C156.298 5.91569 156.541 7.01119 156.541 8.25276C156.541 9.85949 156.141 11.2228 155.34 12.3426C154.539 13.4625 153.264 14.3023 151.517 14.8623V14.9718C152.876 15.3857 153.871 16.0065 154.502 16.8342C155.158 17.6375 155.582 18.7695 155.776 20.2302C155.898 21.1553 155.983 22.0317 156.031 22.8594C156.104 23.6628 156.165 24.3931 156.213 25.0504C156.286 25.6834 156.371 26.2068 156.468 26.6206C156.565 27.0101 156.723 27.2536 156.942 27.351V27.6431H150.825C150.631 27.5457 150.485 27.3023 150.388 26.9128C150.315 26.5232 150.242 26.0485 150.169 25.4886C150.121 24.9043 150.072 24.2592 150.024 23.5532C149.975 22.8472 149.915 22.1169 149.842 21.3622C149.672 19.9989 149.223 18.9765 148.495 18.2948C147.791 17.6132 146.686 17.2724 145.181 17.2724H140.594V27.6431H134.404V0.474717ZM140.594 12.6713H146.092C147.475 12.6713 148.531 12.3548 149.259 11.7218C149.987 11.0645 150.351 10.1881 150.351 9.09264C150.351 7.9728 150.012 7.08422 149.332 6.42693C148.677 5.74528 147.657 5.40446 146.274 5.40446H140.594V12.6713Z" fill="white"/>
<path d="M176.989 0.474717H183.433L193.227 27.6431H186.674L184.962 22.4577H175.132L173.457 27.6431H167.231L176.989 0.474717ZM176.588 18.0027H183.543L181.904 12.9269C181.613 12.0018 181.358 11.1132 181.139 10.2612C180.921 9.38477 180.739 8.60575 180.593 7.92411C180.423 7.12074 180.278 6.37824 180.156 5.69659H180.084C179.889 6.59734 179.695 7.47374 179.501 8.32579C179.307 9.05612 179.101 9.84732 178.882 10.6994C178.688 11.5271 178.482 12.2696 178.263 12.9269L176.588 18.0027Z" fill="white"/>
<path d="M229.424 28.3004C227.604 28.3004 225.965 28.0935 224.509 27.6796C223.053 27.2658 221.803 26.6693 220.759 25.8903C219.715 25.1113 218.902 24.1497 218.319 23.0055C217.761 21.8369 217.458 20.5223 217.409 19.0617H223.672C223.841 20.5467 224.4 21.63 225.346 22.3117C226.317 22.9933 227.677 23.3341 229.424 23.3341C230.031 23.3341 230.614 23.2733 231.172 23.1515C231.73 23.0298 232.228 22.8472 232.665 22.6038C233.102 22.336 233.441 22.0074 233.684 21.6178C233.951 21.204 234.085 20.7171 234.085 20.1572C234.085 19.5729 233.939 19.086 233.648 18.6965C233.381 18.307 232.98 17.9784 232.446 17.7106C231.912 17.4428 231.257 17.2115 230.48 17.0167C229.703 16.7976 228.83 16.5786 227.859 16.3595C226.548 16.0673 225.31 15.7387 224.145 15.3735C222.98 15.0083 221.96 14.5336 221.087 13.9494C220.213 13.3407 219.521 12.5861 219.011 11.6853C218.526 10.7602 218.283 9.5917 218.283 8.17972C218.283 6.76775 218.55 5.55053 219.084 4.52806C219.618 3.5056 220.358 2.66572 221.305 2.00842C222.252 1.32678 223.368 0.827713 224.655 0.511235C225.941 0.170413 227.337 0 228.842 0C230.322 0 231.694 0.170413 232.956 0.511235C234.218 0.852057 235.31 1.36329 236.233 2.04493C237.155 2.72658 237.895 3.57863 238.454 4.60109C239.012 5.59922 239.34 6.76775 239.437 8.10669H233.356C233.187 7.03554 232.701 6.20783 231.9 5.62357C231.099 5.0393 230.019 4.74716 228.66 4.74716C227.373 4.74716 226.342 5.00278 225.565 5.51401C224.788 6.02525 224.4 6.70689 224.4 7.55895C224.4 8.09452 224.545 8.53272 224.837 8.87354C225.128 9.21437 225.553 9.51867 226.111 9.78646C226.669 10.0299 227.349 10.249 228.15 10.4438C228.975 10.6385 229.922 10.8576 230.99 11.1011C232.203 11.3688 233.369 11.6975 234.485 12.087C235.626 12.4522 236.621 12.9512 237.471 13.5842C238.345 14.2171 239.036 15.0083 239.546 15.9578C240.08 16.9072 240.347 18.1001 240.347 19.5364C240.347 20.9484 240.068 22.2021 239.51 23.2976C238.951 24.3688 238.175 25.2817 237.179 26.0364C236.208 26.7667 235.056 27.3266 233.721 27.7161C232.41 28.1056 230.978 28.3004 229.424 28.3004Z" fill="white"/>
<path d="M252.618 0.474717H274.974V5.76963H266.891V27.6431H260.665V5.76963H252.618V0.474717Z" fill="white"/>
<path d="M300.131 28.1543C296.442 28.1543 293.638 27.3023 291.721 25.5982C289.827 23.8697 288.881 21.3987 288.881 18.1853V0.474717H295.07V18.3314C295.07 19.8164 295.471 20.9849 296.272 21.837C297.097 22.689 298.384 23.115 300.131 23.115C301.758 23.115 302.983 22.6768 303.809 21.8004C304.634 20.8997 305.047 19.7068 305.047 18.2218V0.474717H311.273V18.1853C311.273 21.3744 310.326 23.8332 308.433 25.5616C306.539 27.2901 303.772 28.1543 300.131 28.1543Z" fill="white"/>
<path d="M326.515 0.474717H337.802C339.695 0.474717 341.406 0.80337 342.935 1.46067C344.489 2.11797 345.812 3.04306 346.904 4.23593C347.996 5.42881 348.834 6.8773 349.416 8.58141C349.999 10.2855 350.29 12.1722 350.29 14.2415C350.29 16.2621 350.011 18.1001 349.452 19.7555C348.894 21.3866 348.069 22.7864 346.977 23.9549C345.884 25.1234 344.537 26.0364 342.935 26.6937C341.333 27.3266 339.501 27.6431 337.437 27.6431H326.515V0.474717ZM336.964 22.3847C339.319 22.3847 341.066 21.6787 342.207 20.2667C343.372 18.8548 343.955 16.8463 343.955 14.2415C343.955 11.661 343.372 9.60388 342.207 8.07018C341.066 6.51213 339.355 5.73311 337.073 5.73311H332.741V22.3847H336.964Z" fill="white"/>
<path d="M364.6 0.474717H370.826V27.6431H364.6V0.474717Z" fill="white"/>
</svg>
