<svg width="101" height="101" viewBox="0 0 101 101" fill="none" xmlns="http://www.w3.org/2000/svg">
<path d="M21.2371 81.0766C16.77 77.4786 13.9599 71.1395 11.897 65.9416C10.4188 62.2502 10.1305 58.1893 10.2198 54.2137C10.3589 46.4765 11.9814 38.8378 14.9994 31.7121C15.6925 30.0229 16.5566 28.4092 17.5782 26.8959C18.6525 25.4193 19.8773 24.0584 21.233 22.835C25.2205 19.1031 29.7461 15.9915 34.6583 13.6046C39.6533 11.168 44.8391 10.2056 50.3578 9.72637C52.3694 9.48406 54.4034 9.49363 56.4127 9.75482C58.7518 10.1325 60.9446 11.1111 63.0725 12.1548C67.9781 14.5629 74.3091 17.4056 78.0005 21.5193C81.8502 25.8035 84.5913 30.9568 87.2715 36.0126C88.2218 37.7995 89.1761 39.6065 89.6674 41.568C89.9381 42.7312 90.1039 43.9163 90.1629 45.1091C90.5784 52.2352 89.3845 59.3635 86.6695 65.9653C83.9546 72.567 79.7883 78.473 74.4797 83.2452C72.3152 85.1578 69.9477 86.9 67.2756 87.9964C64.0878 89.3162 60.5995 89.6979 57.1599 90.0269C53.645 90.4345 50.1067 90.6055 46.569 90.5385C37.3298 90.1779 28.4503 86.8612 21.2371 81.0766V81.0766Z" fill="#3C3C3B"/>
</svg>
