<svg width="28" height="28" viewBox="0 0 28 28" fill="none" xmlns="http://www.w3.org/2000/svg">
<path d="M27.6973 0.414429H0.575684V27.536H27.6973V0.414429Z" fill="#3C3C3B"/>
<path d="M11.0903 5.90876C11.6473 5.85374 11.9018 6.48645 12.0668 6.91281C12.479 8.2926 12.5146 9.75747 12.17 11.1557C12.0861 11.6435 11.8446 12.0905 11.4823 12.4279C11.1179 12.6755 10.719 12.3316 10.5609 12.0084C10.0526 10.8628 9.86944 9.59959 10.0314 8.35689C10.0766 7.70929 10.2397 7.07542 10.5127 6.48646C10.5635 6.35528 10.6411 6.23613 10.7406 6.13666C10.8401 6.0372 10.9591 5.95955 11.0903 5.90876Z" fill="white"/>
<path fill-rule="evenodd" clip-rule="evenodd" d="M11.1916 6.66497C11.1763 6.68658 11.1637 6.71003 11.1541 6.7348L11.1461 6.75553L11.1367 6.77571C10.8989 7.28866 10.7569 7.84074 10.7175 8.40479L10.7161 8.42534L10.7134 8.44576C10.5685 9.55783 10.731 10.6882 11.1829 11.7144C11.1854 11.7191 11.1882 11.724 11.1913 11.7291C11.3452 11.5279 11.4491 11.2914 11.4924 11.0392L11.4966 11.015L11.5025 10.9911C11.8156 9.72074 11.7856 8.3902 11.4158 7.13549C11.3377 6.93512 11.2694 6.77638 11.1916 6.66497ZM11.0905 5.90878L11.0229 5.22444C11.63 5.16448 12.0412 5.50563 12.2753 5.81696C12.4916 6.10454 12.6259 6.45178 12.7042 6.65397C12.7056 6.65756 12.7069 6.6611 12.7083 6.66459L12.7181 6.68995L12.7259 6.716C13.1709 8.20583 13.2114 9.78707 12.8434 11.2975C12.7301 11.9238 12.4173 12.497 11.9512 12.9311L11.9126 12.9671L11.8689 12.9968C11.4145 13.3054 10.9313 13.219 10.6002 13.0275C10.296 12.8516 10.0709 12.5712 9.94337 12.3106L9.93769 12.2991L9.93246 12.2873C9.37582 11.0326 9.1734 9.64967 9.347 8.28837C9.39955 7.57107 9.58024 6.869 9.88058 6.21544C9.96599 6.00394 10.0932 5.81176 10.2545 5.65043C10.4215 5.48345 10.6216 5.35294 10.8422 5.26751L11.0905 5.90878Z" fill="white"/>
<path d="M17.1415 5.90871C17.7466 5.83994 18.001 6.54831 18.1661 7.00904C18.4528 8.01627 18.5392 9.06986 18.4205 10.1103C18.3961 10.9108 18.13 11.6852 17.6572 12.3316C17.3409 12.6892 16.8183 12.4416 16.6464 12.0703C16.1291 10.9735 15.929 9.75394 16.0687 8.54941C16.0992 7.86505 16.2529 7.1918 16.5226 6.56204C16.5746 6.4161 16.6566 6.2826 16.7631 6.17011C16.8697 6.05762 16.9985 5.96857 17.1415 5.90871Z" fill="white"/>
<path fill-rule="evenodd" clip-rule="evenodd" d="M17.254 6.65248C17.2173 6.69355 17.1889 6.74134 17.1704 6.79318L17.1633 6.81323L17.1549 6.8328C16.9178 7.38652 16.7826 7.97846 16.7558 8.58015L16.7547 8.60453L16.7519 8.62876C16.6294 9.6847 16.7991 10.7536 17.2416 11.7193C17.5453 11.23 17.7157 10.668 17.7333 10.0895L17.7342 10.0609L17.7375 10.0325C17.8451 9.08883 17.7682 8.13336 17.511 7.21917C17.4254 6.98109 17.3508 6.78935 17.2575 6.65748C17.2563 6.65578 17.2551 6.65411 17.254 6.65248ZM17.1416 5.90883L17.064 5.22556C17.7121 5.15191 18.1419 5.52609 18.3804 5.86339C18.5959 6.16799 18.7275 6.5364 18.805 6.75302C18.8079 6.76133 18.8108 6.76941 18.8136 6.77726L18.8214 6.79885L18.8276 6.8209C19.1364 7.9056 19.2313 9.03983 19.1071 10.1606C19.0729 11.0894 18.7614 11.9871 18.2124 12.7376L18.1936 12.7634L18.1724 12.7873C17.8 13.2084 17.2854 13.2612 16.8812 13.1271C16.5095 13.0037 16.1895 12.718 16.0237 12.3619C15.4558 11.1569 15.234 9.81793 15.383 8.49445C15.4194 7.74229 15.5887 7.00249 15.883 6.30931C15.9675 6.08175 16.0971 5.87355 16.2641 5.69729C16.4364 5.51545 16.6447 5.37141 16.876 5.27455L17.1416 5.90883Z" fill="white"/>
<path d="M22.1616 14.3396C22.0932 16.0058 21.4464 17.5961 20.3324 18.837C19.2285 20.0352 17.8038 20.8912 16.2275 21.3032C14.6513 21.7153 12.9898 21.666 11.4408 21.1613C9.95235 20.6946 8.63139 19.8059 7.63807 18.6032C6.66803 17.4106 6.09785 15.943 6.0083 14.4083C6.0083 13.6382 6.69597 13.6382 6.69597 14.3327C6.76407 16.0104 7.48157 17.596 8.69702 18.7544C9.89858 19.8906 11.4274 20.6196 13.0665 20.8381C14.7057 21.0566 16.3721 20.7534 17.8293 19.9716C18.8924 19.4272 19.7915 18.6097 20.4344 17.6031C21.0773 16.5964 21.4408 15.4368 21.4876 14.2433C21.4601 13.6519 22.1822 13.6244 22.1616 14.3396Z" fill="white"/>
<path fill-rule="evenodd" clip-rule="evenodd" d="M21.4727 14.2809C21.4727 14.2809 21.4728 14.2814 21.473 14.2823L21.4727 14.2809ZM9.17067 18.2557C10.2671 19.2921 11.662 19.9571 13.1576 20.1564C14.6536 20.3558 16.1744 20.0792 17.5043 19.3656L17.5101 19.3625L17.516 19.3595C18.4705 18.8707 19.2778 18.1367 19.8551 17.2329C20.4282 16.3355 20.754 15.3026 20.7997 14.239C20.79 13.6642 21.1839 13.0815 21.856 13.1146C22.5472 13.1487 22.8656 13.7891 22.8491 14.3594L22.8489 14.3678L22.8488 14.3678C22.7739 16.1937 22.0651 17.9365 20.8442 19.2963L20.8383 19.3029L20.8383 19.3029C19.6452 20.598 18.1053 21.5232 16.4016 21.9685C14.6992 22.4135 12.9048 22.3607 11.2316 21.8163C9.61761 21.3094 8.18528 20.3454 7.10801 19.041L7.10475 19.0371L7.10477 19.0371C6.04364 17.7325 5.41992 16.1271 5.32197 14.4484L5.3208 14.4284V14.4083C5.3208 13.8961 5.58044 13.175 6.31455 13.1346C6.66259 13.1155 6.95686 13.2889 7.13808 13.5296C7.31124 13.7596 7.38112 14.0408 7.38372 14.3166C7.44744 15.8112 8.08783 17.2232 9.17067 18.2557ZM6.0056 14.2943C6.00563 14.2943 6.00579 14.2949 6.00603 14.2961C6.0057 14.2949 6.00558 14.2943 6.0056 14.2943Z" fill="white"/>
</svg>
