<svg width="101" height="101" viewBox="0 0 101 101" fill="none" xmlns="http://www.w3.org/2000/svg">
<path d="M68.8708 36.983C69.1429 34.6602 69.8088 32.3779 69.8169 30.0389C69.8169 26.7617 68.5459 23.6104 66.954 20.7475C66.3652 19.6917 65.691 18.6196 64.6474 18.0186C62.6169 16.8653 59.9286 17.9576 58.5316 19.8094C57.1346 21.6612 56.7123 24.0531 56.3306 26.3434C55.3154 32.4348 53.9753 40.5566 58.3611 45.7465C60.3063 48.053 62.9459 48.1587 65.2241 46.246C68.1682 43.781 68.4566 40.5323 68.8708 36.983Z" fill="#3C3C3B"/>
<path d="M43.5138 45.2103C44.5135 43.8751 45.2432 42.3578 45.662 40.7433C47.1193 35.8264 47.2343 30.6091 45.9951 25.6327C45.2357 22.6032 43.7412 19.4479 40.9027 18.1484C40.1217 17.7399 39.2158 17.6399 38.3646 17.8682C37.8209 18.0799 37.3312 18.41 36.9311 18.8347C34.8438 20.8652 33.658 23.6713 33.1139 26.5504C32.5697 29.4296 32.6225 32.3413 32.7078 35.2489C32.7727 37.9291 32.8662 40.6865 33.9586 43.1393C35.8144 47.3423 40.3057 49.1575 43.5138 45.2103Z" fill="#3C3C3B"/>
<path d="M77.6667 49.0235C77.1469 49.9088 77.0657 50.9768 76.9357 51.9961C76.6665 54.5295 76.0034 57.0053 74.9703 59.3342C74.4547 60.4615 73.8532 61.5476 73.1713 62.5829C72.1635 64.0442 71.0706 65.4449 69.8982 66.7778C69.1297 67.7364 68.2893 68.6351 67.3845 69.4661C64.5946 71.9027 60.8871 72.9585 57.2891 73.8519C52.7056 74.9458 47.918 74.8451 43.3845 73.5595C38.9175 72.26 34.6576 69.8235 31.685 66.189C28.347 62.1281 26.7348 56.7027 26.2921 51.4803C26.2109 50.5098 26.1622 49.4945 25.6749 48.6377C25.4034 48.174 25.0165 47.7885 24.5518 47.5188C24.087 47.249 23.5604 47.1043 23.0231 47.0986C21.3987 47.0986 19.9855 48.4591 19.4089 49.9981C18.4627 52.524 18.7185 55.8215 19.2992 58.4001C20.8221 65.1697 25.3906 71.6266 30.9906 75.7321C32.7941 77.0107 34.7402 78.075 36.7896 78.9037C43.1693 81.6001 50.2637 82.8428 57.0942 81.7179C60.0946 81.1826 63.0267 80.3179 65.8373 79.1393C67.9701 78.3253 70.0018 77.2678 71.8921 75.988C74.8647 73.8885 77.147 70.8266 79.019 67.7646C81.1957 64.2113 83.2424 60.4997 84.2048 56.3941C84.6109 54.6276 84.822 52.7392 84.2291 51.0296C83.421 48.7433 79.4048 46.055 77.6667 49.0235Z" fill="#3C3C3B"/>
</svg>
