<svg width="101" height="101" viewBox="0 0 101 101" fill="none" xmlns="http://www.w3.org/2000/svg">
<path d="M50.5933 36.031L64.1446 12.0229C65.5171 9.59748 67.6245 7.67065 70.1629 6.52035C71.4241 5.95163 72.7601 5.56603 74.1304 5.37519C75.6248 5.15996 77.2004 5.19245 78.4918 6.08585C79.2914 6.62513 79.8685 7.43594 80.1162 8.36808C80.2386 8.76867 80.3402 9.1753 80.4207 9.58636C80.441 9.90549 80.441 10.2256 80.4207 10.5447C80.4182 11.262 80.3379 11.9768 80.1811 12.6767C79.8218 14.132 79.2527 15.5273 78.4918 16.8189C77.4563 18.6544 76.2258 20.3762 75.0319 22.0981C70.8898 28.1082 64.77 32.6036 58.7639 36.9853C59.7954 36.2341 60.8999 35.5681 61.968 34.8696C63.036 34.1711 64.1446 33.4483 65.2167 32.7539C67.4136 31.3529 69.6349 29.9965 71.9009 28.7132C74.1669 27.43 76.4613 26.232 78.8045 25.1518C81.1486 24.0689 83.5556 23.1278 86.0126 22.3336C87.637 21.8178 89.2613 21.294 90.9426 21.2209C91.4959 21.1942 92.0504 21.231 92.5954 21.3305C92.8593 21.3833 93.1192 21.4564 93.3791 21.5336C94.1718 21.7546 94.9148 22.1254 95.568 22.6259C97.4319 24.1366 97.2126 27.1173 96.5994 29.1965C96.3562 30.0286 96.001 30.8236 95.5436 31.56C93.3547 35.0848 89.4887 37.3346 85.6999 39.3001C79.0449 42.7493 72.1682 45.7529 65.1152 48.2909C73.0319 48.6393 80.8262 50.3724 88.1446 53.4118C93.4238 55.6128 99.1091 59.9417 97.972 65.2818C96.6685 71.3366 87.9984 72.5914 81.6187 71.2919C71.6475 69.2413 62.5378 64.2013 55.503 56.8432C64.4816 63.8726 70.5771 74.1183 72.2624 85.0219C72.839 88.7661 72.6319 93.1924 69.4685 95.5112C66.305 97.83 61.4644 96.8067 58.573 94.2036C55.6817 91.6006 54.3253 87.8564 53.2939 84.2097C50.9549 76.0253 49.6921 67.5711 49.5375 59.0604C49.6428 66.0275 47.6119 72.8598 43.7182 78.6381C41.7261 81.6255 39.332 84.3243 36.6035 86.6584C35.3852 87.694 34.0979 88.5792 32.8268 89.5376C31.6532 90.4229 29.7162 90.4229 28.3314 90.1792C26.9729 89.9278 25.6888 89.3725 24.5751 88.5549C23.8297 88.081 23.2714 87.3635 22.9954 86.5244C22.0432 82.9966 22.3152 79.2503 23.7669 75.897C25.3913 72.1691 26.8695 68.628 29.1842 65.294C31.697 61.6687 34.5839 58.3177 37.7974 55.296C33.8948 58.7275 29.4319 61.5458 24.9852 64.1326C22.3659 65.6554 19.706 67.0848 16.9568 68.3721C14.0045 69.761 11.9944 70.4026 8.72532 70.6706C7.34867 70.7803 6.25221 70.427 5.56592 69.1275C5.19759 68.3776 5.01383 67.5506 5.0299 66.7153C5.05597 64.5469 5.75086 62.4394 7.0197 60.6808C8.27453 58.8656 10.2035 57.8788 11.6492 56.2138C12.6157 55.1052 22.6136 48.2097 29.1598 46.228C30.4996 45.8628 31.8198 45.4291 33.1151 44.9285C30.439 44.0067 27.3243 44.3275 24.5385 44.6239C21.5009 44.9488 18.4471 45.4686 15.4055 45.4848C8.87555 45.5173 1.01361 40.5224 3.26336 34.7234C4.00245 32.8189 5.72428 31.3772 7.63291 30.4473C17.5984 25.5742 28.2746 33.1031 36.1 38.9752C31.5923 34.3173 28.1324 27.9742 22.9791 24.0838C21.6715 23.097 20.2217 22.297 19.0644 21.1316C17.7847 19.8154 16.935 18.1414 16.6278 16.3315C16.3152 14.5447 16.3354 12.6117 18.037 11.564C19.442 10.699 20.9527 10.8006 22.4796 11.1985C23.8106 11.597 25.0653 12.2161 26.1913 13.03C27.6435 14.0125 29.0028 15.1258 30.2522 16.3559C33.1761 19.2513 35.4664 22.764 37.7324 26.2442C39.1172 28.3721 40.7984 30.4879 41.9274 32.762C41.8664 24.9732 37.4238 18.0534 37.0217 10.3051C36.9243 8.40464 37.0989 6.41479 38.1385 4.77012C40.1283 1.61073 42.9791 2.13054 45.7771 3.81988C53.0299 8.2016 51.6654 29.4848 50.5933 36.031Z" fill="#3C3C3B"/>
</svg>
