<svg width="101" height="101" viewBox="0 0 101 101" fill="none" xmlns="http://www.w3.org/2000/svg">
<path d="M64.0968 22.1148C61.7008 17.2985 58.647 12.9453 56.381 8.13309C56.2064 7.76355 55.7759 7.32089 55.4754 7.60921C55.1262 10.8579 55.3577 14.0458 55.2805 17.2823C54.9678 30.2448 54.4967 43.2072 54.1069 56.1697L53.5181 75.6133L53.2257 85.3351L53.0713 90.3869C53.0388 91.4793 52.5353 93.6722 52.9414 94.6671C42.1272 68.4173 31.2643 42.1595 18.6023 16.6691C16.2957 12.0316 13.4571 5.57874 8.72209 2.9229C7.41042 2.18788 7.19924 5.24984 6.87842 6.25695C6.3114 8.21467 5.90397 10.2151 5.66015 12.2387C5.0632 16.2996 4.81552 20.4336 4.58811 24.5433C3.91942 36.7774 3.44429 49.0197 3.16273 61.2701C3.01924 67.459 2.92587 73.6492 2.88255 79.8407C2.846 85.0955 2.52105 90.6955 3.40632 95.8854C3.43698 96.416 3.66776 96.9152 4.05205 97.2823C4.43097 97.5043 4.86932 97.6036 5.3069 97.5666L34.3465 98.1229C38.7282 98.2042 42.9475 98.3544 47.3008 98.0295C51.8003 97.6965 56.316 97.664 60.8236 97.66C69.2162 97.66 77.6087 97.7398 86.0013 97.8996C88.1292 97.9456 90.2585 97.9957 92.3891 98.0498C93.8023 98.0864 96.1901 98.6143 97.3922 97.6437C99.581 95.9138 96.1374 90.6468 95.3617 88.7097C89.3516 74.1351 82.6673 59.8204 75.7597 45.6153C71.8937 37.7777 67.9952 29.9524 64.0968 22.1148Z" fill="#3C3C3B"/>
</svg>
