<svg width="101" height="101" viewBox="0 0 101 101" fill="none" xmlns="http://www.w3.org/2000/svg">
<path d="M52.8835 1.29053C52.9055 1.17652 52.9055 1.05931 52.8835 0.94531C54.3388 7.61412 57.0765 13.9365 60.9444 19.5606C61.8216 20.8357 62.7596 22.0702 63.5271 23.4144C64.2947 24.7585 64.9363 26.3341 65.7119 27.7514C68.6642 33.1281 73.8337 36.8479 79.2469 39.5646C86.0449 42.9839 93.4236 46.5697 100.859 47.9829C98.784 49.8347 96.3434 51.1869 93.9231 52.527C83.1048 58.5209 71.8886 64.9128 64.9403 75.3169C62.5485 78.9027 60.7413 82.8621 58.9424 86.7971C56.9809 91.0976 54.9992 95.459 54.1789 100.133C54.784 96.6935 52.6439 91.4144 51.4053 88.2875C49.8232 84.2716 47.6287 80.525 44.8997 77.1809C43.5637 75.5565 41.9962 74.2204 40.5789 72.6895C39.2794 71.2844 38.4185 69.6235 37.1353 68.1534C34.2236 64.8072 30.4104 62.4316 26.6662 60.194C24.4626 58.8115 22.1544 57.6031 19.7627 56.5798C13.9515 54.2489 7.27945 53.9606 2.17895 50.2733C1.70788 49.9321 1.20026 49.323 1.51295 48.8235C1.65504 48.6352 1.85022 48.4938 2.07336 48.4174L14.5728 42.7727C20.3556 40.1615 26.1952 37.5179 31.2673 33.6479C36.449 29.6925 39.5759 24.7138 43.3566 19.524C45.5007 16.5839 47.6287 13.327 49.0175 9.92805C49.6023 8.49455 49.9556 7.08541 50.6094 5.66409C50.9911 4.86409 52.6764 2.4357 52.8835 1.29053Z" fill="#3C3C3B"/>
</svg>
