<svg width="101" height="101" viewBox="0 0 101 101" fill="none" xmlns="http://www.w3.org/2000/svg">
<path d="M80.2676 5.96948C84.426 7.39892 89.2016 9.84766 92.1255 13.2791C93.2584 14.6273 94.1275 16.0487 95.3742 17.34C95.7559 17.7461 99.0859 22.4527 99.0047 22.469C90.1844 24.1218 80.9864 24.6578 72.0361 25.2588C76.9986 24.8081 81.8636 27.3258 85.4087 30.8507C88.9539 34.3756 91.3945 38.8507 93.7864 43.2486L99.4717 53.6893C91.0304 53.8273 82.5945 54.1387 74.1641 54.6233C80.0455 57.7145 85.0834 62.1948 88.8402 67.675C94.7448 76.3085 97.1326 86.8953 98.229 97.3197L63.1833 96.2517C52.9417 95.939 42.6636 95.6263 32.5641 93.8964C27.5123 93.0314 22.5011 91.8131 17.3844 91.5857C12.7671 91.3786 8.16203 91.9918 3.57727 92.5847L9.75796 76.5157C11.8331 71.1106 14.0341 65.5187 18.1925 61.4903C23.3945 56.4832 30.8098 54.737 37.8392 53.1857C29.0885 53.4972 20.3329 52.7238 11.7723 50.8832C14.0261 37.8111 23.6707 27.1837 35.7641 22.8344C25.8595 21.9126 15.9549 21.1614 6.00162 21.003C7.68284 15.4923 12.4301 11.6182 17.1001 8.36543C17.9367 7.74817 18.8254 7.20467 19.756 6.74107C20.8128 6.29287 21.9084 5.94215 23.0291 5.69332C27.2727 4.61312 31.5326 3.52884 35.8859 3.09433C38.7285 2.806 41.628 2.80195 44.5031 2.79789C52.0564 2.79789 59.4108 2.61108 66.9519 3.40296C71.4351 3.93494 75.9752 4.49131 80.2676 5.96948Z" fill="#3C3C3B"/>
</svg>
