<svg width="101" height="101" viewBox="0 0 101 101" fill="none" xmlns="http://www.w3.org/2000/svg">
<path d="M96.8182 44.9657C94.6215 57.7982 90.1591 70.4398 82.355 80.9738C79.9627 84.2952 77.1374 87.2821 73.954 89.8551C64.4892 97.3068 51.1182 99.5403 39.5298 95.987C27.9414 92.4337 18.371 83.3251 14.0101 72.2307C12.5849 68.6002 11.6875 64.7951 10.843 60.9941C6.70399 42.3838 3.74354 23.5308 1.97913 4.54747C15.4066 3.78444 28.8772 4.59535 42.1163 6.96369C40.9656 17.1767 40.7576 27.474 41.495 37.7251C42.031 45.3962 43.3629 53.6886 49.8027 58.582C50.4917 59.1212 51.2856 59.5109 52.1336 59.7262C52.9816 59.9416 53.8652 59.9778 54.728 59.8327C58.1712 59.183 58.9995 55.9505 59.5314 53.1038C62.6021 36.6694 64.5152 20.0397 65.2566 3.33732C77.1266 2.22734 89.0371 1.71022 100.988 1.78602C97.0781 7.58907 98.9378 15.7799 98.8038 22.3626C98.7058 29.9359 98.0421 37.4913 96.8182 44.9657V44.9657Z" fill="#3C3C3B"/>
</svg>
